<svg width="595" height="51" viewBox="0 0 595 51" fill="none" xmlns="http://www.w3.org/2000/svg">
<path d="M75.8996 28.2998C79.3996 39.8998 75.8996 48.1998 75.8996 48.1998L55.7996 48.2998C55.7996 48.2998 59.2996 42.2998 57.8996 31.8998C56.1996 18.9998 50.7996 12.3998 50.6996 12.2998C50.6996 12.2998 49.4996 13.1998 48.1996 18.0998C46.8996 22.9998 45.6996 31.9998 45.6996 48.2998H33.6996C33.6996 15.5998 28.6996 12.2998 28.6996 12.2998C28.5996 12.3998 23.2996 18.9998 21.4996 31.8998C20.0996 42.2998 23.6996 48.2998 23.6996 48.2998L3.59961 48.1998C3.59961 48.1998 -0.000390712 39.8998 3.59961 28.2998C7.09961 16.6998 17.2996 0.299803 17.2996 0.299803H34.3996C34.3996 0.299803 36.7996 4.1998 39.6996 9.4998C42.5996 4.1998 44.9996 0.299803 44.9996 0.299803H62.1996C62.1996 0.299803 72.2996 16.6998 75.8996 28.2998ZM129.143 12.2998L99.3434 9.8998V27.1998C99.3434 27.1998 100.943 19.9998 107.543 19.9998C114.043 19.9998 125.343 19.9998 125.343 19.9998L123.443 30.4998H99.3434V38.5998L129.143 36.1998V48.1998H81.4434V0.299803H129.143V12.2998ZM158.28 30.9998C158.28 30.9998 168.08 35.3998 186.18 33.8998V48.2998C186.18 48.2998 177.38 50.4998 168.78 48.1998C160.28 45.9998 151.98 39.1998 151.98 30.9998V48.2998H134.08V0.299803H151.98V8.3998C151.98 8.3998 153.98 0.299803 167.28 0.299803C180.58 0.299803 186.18 8.2998 186.18 15.6998C186.18 23.0998 178.98 33.4998 158.28 30.9998ZM151.98 22.5998H162.88C165.08 22.5998 166.78 20.8998 166.78 18.6998C166.78 16.5998 165.08 14.7998 162.88 14.7998H151.98V22.5998ZM204.409 24.2998C204.409 28.7998 209.509 40.4998 236.309 32.6998L239.909 44.8998C239.909 44.8998 234.109 48.8998 218.409 48.8998C202.609 48.8998 189.309 41.8998 189.309 24.5998C189.309 7.2998 206.009 0.299803 219.409 0.299803C232.909 0.299803 239.909 4.5998 239.909 4.5998L236.309 16.7998C236.309 16.7998 204.409 7.2998 204.409 24.2998ZM274.941 0.299803H292.841V48.1998H274.941V30.5998H261.941V48.1998H244.041V0.299803H261.941V27.1998C261.941 27.1998 266.441 18.8998 272.941 18.8998C273.541 18.8998 274.241 18.8998 274.941 18.8998V0.299803ZM348.624 28.2998C352.224 39.8998 348.624 48.1998 348.624 48.1998L328.624 48.2998C328.624 48.2998 330.624 44.6998 330.924 38.2998H316.124C316.424 44.6998 318.524 48.2998 318.524 48.2998L298.424 48.1998C298.424 48.1998 294.824 39.8998 298.424 28.2998C301.924 16.6998 312.124 0.299803 312.124 0.299803H334.924C334.924 0.299803 345.124 16.6998 348.624 28.2998ZM330.324 29.7998C328.424 18.1998 323.524 12.2998 323.524 12.2998C323.524 12.2998 318.724 18.1998 316.724 29.7998H330.324ZM390.997 0.299803H408.997V48.1998H390.997C390.997 48.1998 388.197 43.0998 372.097 22.6998V48.1998H354.197C354.197 48.1998 354.197 8.1998 354.197 0.299803H367.497C367.497 0.299803 383.997 7.6998 390.997 28.1998C390.997 16.9998 390.997 4.2998 390.997 0.299803ZM446.237 0.299803C457.737 0.299803 468.337 6.3998 468.337 26.1998C468.337 45.8998 453.237 48.1998 444.837 48.1998C436.537 48.1998 415.037 48.1998 415.037 48.1998V0.299803H432.937V8.3998C432.937 8.3998 434.637 0.299803 446.237 0.299803ZM443.337 36.2998C443.337 36.2998 450.437 34.8998 450.437 24.2998C450.437 13.6998 443.337 12.2998 443.337 12.2998H432.937V36.2998H443.337ZM490.75 48.1998H472.85V0.299803H490.75V48.1998ZM516.973 16.1998C522.573 19.5998 541.473 23.9998 541.473 33.7998C541.473 43.4998 530.873 48.8998 518.873 48.8998C506.873 48.8998 494.973 45.1998 494.973 45.1998L498.573 31.3998C503.973 35.6998 521.573 36.6998 522.573 33.2998C523.273 30.5998 518.873 29.2998 513.073 27.3998C506.173 25.0998 495.873 23.0998 496.473 13.4998C497.073 3.8998 509.773 -0.000196338 522.773 -0.000196338C535.773 -0.000196338 542.773 4.7998 542.773 4.7998L538.073 16.5998C514.273 8.6998 511.773 13.0998 516.973 16.1998ZM594.475 12.2998L564.675 9.8998V27.1998C564.675 27.1998 566.275 19.9998 572.875 19.9998C579.375 19.9998 590.675 19.9998 590.675 19.9998L588.775 30.4998H564.675V38.5998L594.475 36.1998V48.1998H546.775V0.299803H594.475V12.2998Z" fill="black"/>
</svg>
