<svg width="847" height="405" viewBox="0 0 847 405" fill="none" xmlns="http://www.w3.org/2000/svg">
<g clip-path="url(#clip0_919_35734)">
<path d="M809.581 243.583H815.743C815.743 263.286 832.444 274.907 847 274.907V281.081C830.165 281.081 815.743 294.444 815.743 312.405H809.581C809.581 294.444 794.955 281.081 778.324 281.081V274.907C793.44 274.907 809.581 263.286 809.581 243.583Z" fill="#FF017E"/>
<path d="M31.2572 243.583H37.4183C37.4183 263.286 54.1194 274.907 68.6755 274.907V281.081C51.8408 281.081 37.4183 294.444 37.4183 312.405H31.2572C31.2572 294.444 16.6311 281.081 0 281.081V274.907C15.1162 274.907 31.2572 263.286 31.2572 243.583Z" fill="#FF017E"/>
<path d="M251.853 313.068V250.65L183.133 244.514V403.877H251.808C251.808 403.877 295.044 377.681 320.554 304.821V404.158H412.301L389.159 263.311L309.861 255.842L251.853 313.062V313.068Z" fill="#FF017E"/>
<path d="M37.7562 335.132C56.093 335.081 69.7835 330.603 78.4523 321.82C90.9972 309.114 91.6337 291.708 91.6273 291.516V291.242C91.6273 266.685 91.6273 259.701 91.6273 235.145C114.445 237.147 137.262 239.15 160.08 241.147V291.172C160.099 296.913 159.106 339.571 127.111 371.979C112.02 387.268 84.2951 404.879 37.9344 405H22.8945V335.342L37.7562 335.125V335.132Z" fill="#FF017E"/>
<path d="M809.162 335.132C790.825 335.081 777.135 330.603 768.466 321.82C755.921 309.114 755.285 291.708 755.291 291.516V291.242C755.291 266.685 755.291 259.701 755.291 235.145C732.473 237.147 709.656 239.15 686.838 241.147C686.838 263.681 686.838 268.637 686.838 291.172C686.819 296.913 687.812 339.571 719.808 371.979C734.898 387.268 762.623 404.879 808.984 405H824.024V335.342L809.162 335.125V335.132Z" fill="#FF017E"/>
<path d="M582.909 251.275L457.638 262.91L434.941 403.878H579.777C595.186 403.878 663.836 404.165 663.836 312.38C663.836 243.577 595.186 249.7 582.909 251.269V251.275ZM560.849 358.323L511.191 358.285L515.392 342.492L570.332 331.349L558.888 319.435L521.565 319.479L526.116 302.864L572.292 298.635C583.736 297.818 599.623 298.52 599.623 319.435C599.623 346.81 583.743 358.285 560.849 358.317V358.323Z" fill="#FF017E"/>
<path d="M585.709 37.5681L434.947 37.1152L457.918 178.479C480.538 180.277 555.413 186.987 579.395 189.462C618.08 192.843 664.67 174.76 664.67 128.428C664.67 39.8197 618.08 37.5681 585.702 37.5681H585.709ZM572.298 139.086H526.498L520.655 117.406L567.97 123.918L560.854 98.003H515.073L511.203 82.9947H560.861C572.305 82.9947 599.635 82.9947 599.635 106.212C599.635 139.8 579.159 139.086 572.305 139.086H572.298Z" fill="#FF017E"/>
<path d="M152.093 63.358C166.557 48.8634 166.557 25.3631 152.093 10.8686C137.63 -3.626 114.18 -3.626 99.716 10.8686C85.2524 25.3631 85.2524 48.8634 99.716 63.358C114.18 77.8526 137.63 77.8526 152.093 63.358Z" fill="#FF017E"/>
<path d="M160.13 199.91V78.4023L91.4102 118.165V205.874L160.13 199.91Z" fill="#FF017E"/>
<path d="M686.736 199.91V78.4023L755.45 118.165V205.874L686.736 199.91Z" fill="#FF017E"/>
<path d="M228.92 38.6843C228.92 38.6843 297.596 60.0582 320.49 138.544V37.1152H412.059L389.165 178.479L309.046 185.189L251.814 128.881L251.655 190.846L183.139 197.703V65.1672L228.92 38.6779V38.6843Z" fill="#FF017E"/>
<path d="M720.818 0.65683C712.557 0.65683 704.945 3.41866 698.834 8.06848C709.483 13.3753 716.796 24.3843 716.796 37.1091C716.796 40.3621 716.312 43.5002 715.421 46.4598C714.963 47.9906 714.396 49.4704 713.722 50.8927C710.616 57.5071 705.346 62.8968 698.828 66.1434C704.938 70.7932 712.551 73.555 720.812 73.555C731.326 73.555 740.791 69.0774 747.436 61.9337C748.117 61.2002 748.772 60.4348 749.39 59.6438C754.271 53.4377 757.193 45.6115 757.193 37.0964C757.193 16.9599 740.905 0.637695 720.812 0.637695L720.818 0.65683Z" fill="#FF017E"/>
</g>
<defs>
<clipPath id="clip0_919_35734">
<rect width="847" height="405" fill="white"/>
</clipPath>
</defs>
</svg>
