<svg width="26" height="27" viewBox="0 0 26 27" fill="none" xmlns="http://www.w3.org/2000/svg">
<path d="M25 7C23.4092 6.99835 21.884 6.36567 20.7592 5.24081C19.6343 4.11595 19.0017 2.59079 19 1C19 0.734784 18.8946 0.48043 18.7071 0.292893C18.5196 0.105357 18.2652 0 18 0H13C12.7348 0 12.4804 0.105357 12.2929 0.292893C12.1054 0.48043 12 0.734784 12 1V17.5C11.9998 17.9474 11.8796 18.3865 11.6518 18.7715C11.4241 19.1566 11.0972 19.4735 10.7053 19.6891C10.3133 19.9048 9.87072 20.0114 9.42358 19.9977C8.97643 19.984 8.54115 19.8506 8.16313 19.6114C7.78511 19.3722 7.4782 19.0359 7.27443 18.6376C7.07065 18.2394 6.97747 17.7938 7.0046 17.3472C7.03174 16.9007 7.17819 16.4696 7.42869 16.099C7.67918 15.7283 8.02455 15.4317 8.42875 15.24C8.59973 15.1589 8.74417 15.0309 8.84529 14.8709C8.94641 14.7109 9.00006 14.5255 9 14.3363V9C9.00006 8.85382 8.96808 8.70941 8.9063 8.57693C8.84452 8.44445 8.75445 8.32713 8.64243 8.23322C8.53041 8.13931 8.39916 8.07111 8.25793 8.0334C8.1167 7.9957 7.96892 7.98942 7.825 8.015C3.36375 8.81 0 12.8875 0 17.5C0 20.0196 1.00089 22.4359 2.78249 24.2175C4.56408 25.9991 6.98044 27 9.5 27C12.0196 27 14.4359 25.9991 16.2175 24.2175C17.9991 22.4359 19 20.0196 19 17.5V12.5363C20.8521 13.5026 22.911 14.0049 25 14C25.2652 14 25.5196 13.8946 25.7071 13.7071C25.8946 13.5196 26 13.2652 26 13V8C26 7.73478 25.8946 7.48043 25.7071 7.29289C25.5196 7.10536 25.2652 7 25 7ZM24 11.955C22.0458 11.7818 20.1746 11.0844 18.5837 9.93625C18.4342 9.82875 18.2579 9.76462 18.0743 9.75095C17.8906 9.73727 17.7068 9.77456 17.543 9.85872C17.3792 9.94288 17.2418 10.0706 17.146 10.2279C17.0502 10.3852 16.9997 10.5658 17 10.75V17.5C17 19.4891 16.2098 21.3968 14.8033 22.8033C13.3968 24.2098 11.4891 25 9.5 25C7.51088 25 5.60322 24.2098 4.1967 22.8033C2.79018 21.3968 2 19.4891 2 17.5C2 14.2625 4.08 11.3588 7 10.3V13.7587C6.35356 14.1907 5.83005 14.7827 5.4805 15.4771C5.13094 16.1716 4.96727 16.9447 5.00542 17.7213C5.04358 18.4978 5.28226 19.2512 5.69821 19.908C6.11417 20.5648 6.69319 21.1027 7.37886 21.4691C8.06453 21.8356 8.83344 22.0182 9.61066 21.999C10.3879 21.9799 11.1469 21.7598 11.8137 21.36C12.4805 20.9603 13.0324 20.3946 13.4156 19.7181C13.7987 19.0417 14.0001 18.2775 14 17.5V2H17.0625C17.2874 3.76135 18.0906 5.39822 19.3462 6.65379C20.6018 7.90937 22.2386 8.71261 24 8.9375V11.955Z" fill="white"/>
</svg>
