<svg width="822" height="417" viewBox="0 0 822 417" fill="none" xmlns="http://www.w3.org/2000/svg">
<g clip-path="url(#clip0_603_31119)">
<path d="M34.7999 271.249H41.6593C41.6593 293.19 60.2533 306.131 76.4593 306.131V313.007C57.7165 313.007 41.6593 327.887 41.6593 347.889H34.7999C34.7999 327.887 18.516 313.007 0 313.007V306.131C16.8295 306.131 34.7999 293.19 34.7999 271.249Z" fill="white" fill-opacity="0.05"/>
<path d="M280.398 348.627V279.119L203.889 272.286V449.75H280.348C280.348 449.75 328.484 420.579 356.885 339.443V450.062H459.032L433.266 293.218L344.98 284.901L280.398 348.62V348.627Z" fill="white" fill-opacity="0.05"/>
<path d="M42.0344 373.196C62.4495 373.139 77.6918 368.153 87.3431 358.372C101.31 344.223 102.018 324.84 102.011 324.627V324.321C102.011 296.975 102.011 289.198 102.011 261.852C127.415 264.082 152.819 266.313 178.223 268.536V324.243C178.244 330.636 177.138 378.139 141.516 414.229C124.715 431.254 93.8481 450.865 42.2328 451H25.4883V373.43L42.0344 373.189V373.196Z" fill="white" fill-opacity="0.05"/>
<path d="M900.872 373.196C880.457 373.139 865.215 368.153 855.563 358.372C841.597 344.223 840.888 324.84 840.895 324.627V324.321C840.895 296.975 840.895 289.198 840.895 261.852C815.491 264.082 790.088 266.313 764.684 268.536C764.684 293.63 764.684 299.149 764.684 324.243C764.663 330.636 765.768 378.139 801.39 414.229C818.191 431.254 849.058 450.865 900.674 451H917.418V373.43L900.872 373.189V373.196Z" fill="white" fill-opacity="0.05"/>
<path d="M648.976 279.815L509.507 292.771L484.238 449.75H645.49C662.646 449.75 739.077 450.07 739.077 347.86C739.077 271.242 662.646 278.061 648.976 279.808V279.815ZM624.416 399.022L569.13 398.979L573.807 381.392L634.974 368.984L622.233 355.716L580.68 355.766L585.747 337.263L637.157 332.554C649.898 331.644 667.585 332.426 667.585 355.716C667.585 386.201 649.905 398.979 624.416 399.015V399.022Z" fill="white" fill-opacity="0.05"/>
<path d="M652.093 41.8356L484.244 41.3313L509.818 198.751C535.002 200.754 618.363 208.226 645.064 210.982C688.133 214.746 740.004 194.61 740.004 143.015C740.004 44.3429 688.133 41.8356 652.086 41.8356H652.093ZM637.163 154.884H586.171L579.666 130.741L632.344 137.993L624.422 109.135H573.451L569.143 92.4218H624.429C637.17 92.4218 667.598 92.4218 667.598 118.276C667.598 155.679 644.802 154.884 637.17 154.884H637.163Z" fill="white" fill-opacity="0.05"/>
<path d="M169.332 70.5545C185.435 54.4136 185.435 28.2441 169.332 12.1032C153.229 -4.03761 127.121 -4.03761 111.018 12.1033C94.9153 28.2441 94.9153 54.4136 111.018 70.5545C127.121 86.6953 153.229 86.6953 169.332 70.5545Z" fill="white" fill-opacity="0.05"/>
<path d="M178.28 222.616V87.3079L101.771 131.587V229.258L178.28 222.616Z" fill="white" fill-opacity="0.05"/>
<path d="M764.572 222.616V87.3079L841.074 131.587V229.258L764.572 222.616Z" fill="white" fill-opacity="0.05"/>
<path d="M254.867 43.0786C254.867 43.0786 331.326 66.8801 356.815 154.28V41.3313H458.763L433.274 198.751L344.074 206.223L280.356 143.519L280.179 212.523L203.896 220.159V72.5695L254.867 43.0715V43.0786Z" fill="white" fill-opacity="0.05"/>
<path d="M802.518 0.731513C793.32 0.731513 784.845 3.80703 778.042 8.98498C789.897 14.8945 798.039 27.154 798.039 41.3241C798.039 44.9465 797.501 48.4411 796.509 51.7368C795.999 53.4415 795.368 55.0893 794.617 56.6732C791.159 64.0389 785.291 70.0407 778.035 73.6561C784.838 78.834 793.313 81.9095 802.511 81.9095C814.217 81.9095 824.754 76.9233 832.152 68.9682C832.91 68.1514 833.64 67.299 834.327 66.4183C839.762 59.5073 843.015 50.7921 843.015 41.3099C843.015 18.8863 824.882 0.710205 802.511 0.710205L802.518 0.731513Z" fill="white" fill-opacity="0.05"/>
</g>
<defs>
<clipPath id="clip0_603_31119">
<rect width="943" height="451" fill="white"/>
</clipPath>
</defs>
</svg>
